<svg id="visual" viewBox="0 0 980 150" width="980" height="150" xmlns="http://www.w3.org/2000/svg" xmlns:xlink="http://www.w3.org/1999/xlink" version="1.1"><rect x="0" y="0" width="980" height="150" fill="#0e1117"></rect><path d="M0 109L89 109L89 118L178 118L178 72L267 72L267 105L356 105L356 139L445 139L445 78L535 78L535 106L624 106L624 101L713 101L713 83L802 83L802 109L891 109L891 111L980 111L980 100L980 0L980 0L891 0L891 0L802 0L802 0L713 0L713 0L624 0L624 0L535 0L535 0L445 0L445 0L356 0L356 0L267 0L267 0L178 0L178 0L89 0L89 0L0 0Z" fill="#82b3d2"></path><path d="M0 63L89 63L89 53L178 53L178 82L267 82L267 67L356 67L356 51L445 51L445 87L535 87L535 59L624 59L624 63L713 63L713 85L802 85L802 44L891 44L891 107L980 107L980 79L980 0L980 0L891 0L891 0L802 0L802 0L713 0L713 0L624 0L624 0L535 0L535 0L445 0L445 0L356 0L356 0L267 0L267 0L178 0L178 0L89 0L89 0L0 0Z" fill="#5a9dc5"></path><path d="M0 75L89 75L89 37L178 37L178 75L267 75L267 65L356 65L356 36L445 36L445 67L535 67L535 63L624 63L624 65L713 65L713 52L802 52L802 51L891 51L891 38L980 38L980 32L980 0L980 0L891 0L891 0L802 0L802 0L713 0L713 0L624 0L624 0L535 0L535 0L445 0L445 0L356 0L356 0L267 0L267 0L178 0L178 0L89 0L89 0L0 0Z" fill="#3b85ae"></path><path d="M0 17L89 17L89 20L178 20L178 17L267 17L267 51L356 51L356 12L445 12L445 24L535 24L535 5L624 5L624 39L713 39L713 38L802 38L802 11L891 11L891 41L980 41L980 44L980 0L980 0L891 0L891 0L802 0L802 0L713 0L713 0L624 0L624 0L535 0L535 0L445 0L445 0L356 0L356 0L267 0L267 0L178 0L178 0L89 0L89 0L0 0Z" fill="#2f6b8c"></path></svg>