<svg id="visual" viewBox="0 0 980 550" width="980" height="550" xmlns="http://www.w3.org/2000/svg" xmlns:xlink="http://www.w3.org/1999/xlink" version="1.1"><rect x="0" y="0" width="980" height="550" fill="#191919"></rect><path d="M0 343L89 343L89 421L178 421L178 400L267 400L267 410L356 410L356 405L445 405L445 406L535 406L535 352L624 352L624 366L713 366L713 434L802 434L802 428L891 428L891 358L980 358L980 390L980 551L980 551L891 551L891 551L802 551L802 551L713 551L713 551L624 551L624 551L535 551L535 551L445 551L445 551L356 551L356 551L267 551L267 551L178 551L178 551L89 551L89 551L0 551Z" fill="#82b3d2"></path><path d="M0 395L89 395L89 371L178 371L178 379L267 379L267 380L356 380L356 447L445 447L445 390L535 390L535 422L624 422L624 446L713 446L713 369L802 369L802 433L891 433L891 416L980 416L980 394L980 551L980 551L891 551L891 551L802 551L802 551L713 551L713 551L624 551L624 551L535 551L535 551L445 551L445 551L356 551L356 551L267 551L267 551L178 551L178 551L89 551L89 551L0 551Z" fill="#71a9cd"></path><path d="M0 389L89 389L89 455L178 455L178 424L267 424L267 423L356 423L356 456L445 456L445 460L535 460L535 461L624 461L624 410L713 410L713 396L802 396L802 465L891 465L891 390L980 390L980 424L980 551L980 551L891 551L891 551L802 551L802 551L713 551L713 551L624 551L624 551L535 551L535 551L445 551L445 551L356 551L356 551L267 551L267 551L178 551L178 551L89 551L89 551L0 551Z" fill="#60a0c7"></path><path d="M0 434L89 434L89 412L178 412L178 476L267 476L267 422L356 422L356 480L445 480L445 423L535 423L535 454L624 454L624 456L713 456L713 413L802 413L802 475L891 475L891 435L980 435L980 412L980 551L980 551L891 551L891 551L802 551L802 551L713 551L713 551L624 551L624 551L535 551L535 551L445 551L445 551L356 551L356 551L267 551L267 551L178 551L178 551L89 551L89 551L0 551Z" fill="#4d97c2"></path><path d="M0 449L89 449L89 495L178 495L178 456L267 456L267 440L356 440L356 450L445 450L445 465L535 465L535 455L624 455L624 472L713 472L713 482L802 482L802 488L891 488L891 462L980 462L980 456L980 551L980 551L891 551L891 551L802 551L802 551L713 551L713 551L624 551L624 551L535 551L535 551L445 551L445 551L356 551L356 551L267 551L267 551L178 551L178 551L89 551L89 551L0 551Z" fill="#3f8cb8"></path><path d="M0 474L89 474L89 496L178 496L178 507L267 507L267 475L356 475L356 483L445 483L445 509L535 509L535 473L624 473L624 479L713 479L713 507L802 507L802 474L891 474L891 494L980 494L980 472L980 551L980 551L891 551L891 551L802 551L802 551L713 551L713 551L624 551L624 551L535 551L535 551L445 551L445 551L356 551L356 551L267 551L267 551L178 551L178 551L89 551L89 551L0 551Z" fill="#3a81a9"></path><path d="M0 509L89 509L89 482L178 482L178 512L267 512L267 493L356 493L356 515L445 515L445 504L535 504L535 508L624 508L624 508L713 508L713 491L802 491L802 524L891 524L891 498L980 498L980 514L980 551L980 551L891 551L891 551L802 551L802 551L713 551L713 551L624 551L624 551L535 551L535 551L445 551L445 551L356 551L356 551L267 551L267 551L178 551L178 551L89 551L89 551L0 551Z" fill="#34769a"></path><path d="M0 515L89 515L89 510L178 510L178 530L267 530L267 520L356 520L356 536L445 536L445 510L535 510L535 541L624 541L624 518L713 518L713 520L802 520L802 520L891 520L891 522L980 522L980 535L980 551L980 551L891 551L891 551L802 551L802 551L713 551L713 551L624 551L624 551L535 551L535 551L445 551L445 551L356 551L356 551L267 551L267 551L178 551L178 551L89 551L89 551L0 551Z" fill="#2f6b8c"></path></svg>