<svg id="visual" viewBox="0 0 980 550" width="980" height="550" xmlns="http://www.w3.org/2000/svg" xmlns:xlink="http://www.w3.org/1999/xlink" version="1.1"><rect x="0" y="0" width="980" height="550" fill="#191919"></rect><path d="M429 550L640 550L640 500L583 500L583 450L609 450L609 400L597 400L597 350L600 350L600 300L456 300L456 250L492 250L492 200L674 200L674 150L656 150L656 100L470 100L470 50L557 50L557 0L980 0L980 50L980 50L980 100L980 100L980 150L980 150L980 200L980 200L980 250L980 250L980 300L980 300L980 350L980 350L980 400L980 400L980 450L980 450L980 500L980 500L980 550L980 550Z" fill="#82b3d2"></path><path d="M570 550L506 550L506 500L528 500L528 450L529 450L529 400L710 400L710 350L556 350L556 300L642 300L642 250L705 250L705 200L499 200L499 150L671 150L671 100L627 100L627 50L567 50L567 0L980 0L980 50L980 50L980 100L980 100L980 150L980 150L980 200L980 200L980 250L980 250L980 300L980 300L980 350L980 350L980 400L980 400L980 450L980 450L980 500L980 500L980 550L980 550Z" fill="#71a9cd"></path><path d="M555 550L730 550L730 500L648 500L648 450L644 450L644 400L732 400L732 350L744 350L744 300L745 300L745 250L608 250L608 200L571 200L571 150L758 150L758 100L557 100L557 50L647 50L647 0L980 0L980 50L980 50L980 100L980 100L980 150L980 150L980 200L980 200L980 250L980 250L980 300L980 300L980 350L980 350L980 400L980 400L980 450L980 450L980 500L980 500L980 550L980 550Z" fill="#60a0c7"></path><path d="M673 550L616 550L616 500L786 500L786 450L642 450L642 400L796 400L796 350L646 350L646 300L728 300L728 250L732 250L732 200L617 200L617 150L782 150L782 100L676 100L676 50L616 50L616 0L980 0L980 50L980 50L980 100L980 100L980 150L980 150L980 200L980 200L980 250L980 250L980 300L980 300L980 350L980 350L980 400L980 400L980 450L980 450L980 500L980 500L980 550L980 550Z" fill="#4d97c2"></path><path d="M714 550L836 550L836 500L733 500L733 450L690 450L690 400L715 400L715 350L758 350L758 300L729 300L729 250L775 250L775 200L803 200L803 150L818 150L818 100L748 100L748 50L732 50L732 0L980 0L980 50L980 50L980 100L980 100L980 150L980 150L980 200L980 200L980 250L980 250L980 300L980 300L980 350L980 350L980 400L980 400L980 450L980 450L980 500L980 500L980 550L980 550Z" fill="#3f8cb8"></path><path d="M780 550L840 550L840 500L868 500L868 450L783 450L783 400L806 400L806 350L874 350L874 300L779 300L779 250L794 250L794 200L869 200L869 150L780 150L780 100L834 100L834 50L776 50L776 0L980 0L980 50L980 50L980 100L980 100L980 150L980 150L980 200L980 200L980 250L980 250L980 300L980 300L980 350L980 350L980 400L980 400L980 450L980 450L980 500L980 500L980 550L980 550Z" fill="#3a81a9"></path><path d="M875 550L803 550L803 500L882 500L882 450L830 450L830 400L890 400L890 350L862 350L862 300L873 300L873 250L871 250L871 200L827 200L827 150L915 150L915 100L844 100L844 50L887 50L887 0L980 0L980 50L980 50L980 100L980 100L980 150L980 150L980 200L980 200L980 250L980 250L980 300L980 300L980 350L980 350L980 400L980 400L980 450L980 450L980 500L980 500L980 550L980 550Z" fill="#34769a"></path><path d="M890 550L878 550L878 500L931 500L931 450L904 450L904 400L945 400L945 350L876 350L876 300L960 300L960 250L897 250L897 200L905 200L905 150L903 150L903 100L908 100L908 50L943 50L943 0L980 0L980 50L980 50L980 100L980 100L980 150L980 150L980 200L980 200L980 250L980 250L980 300L980 300L980 350L980 350L980 400L980 400L980 450L980 450L980 500L980 500L980 550L980 550Z" fill="#2f6b8c"></path></svg>