<svg id="visual" viewBox="0 0 980 150" width="980" height="150" xmlns="http://www.w3.org/2000/svg" xmlns:xlink="http://www.w3.org/1999/xlink" version="1.1"><rect x="0" y="0" width="980" height="150" fill="#191919"></rect><path d="M0 140L89 140L89 86L178 86L178 101L267 101L267 94L356 94L356 97L445 97L445 96L535 96L535 133L624 133L624 124L713 124L713 77L802 77L802 82L891 82L891 129L980 129L980 107L980 0L980 0L891 0L891 0L802 0L802 0L713 0L713 0L624 0L624 0L535 0L535 0L445 0L445 0L356 0L356 0L267 0L267 0L178 0L178 0L89 0L89 0L0 0Z" fill="#82b3d2"></path><path d="M0 104L89 104L89 120L178 120L178 115L267 115L267 114L356 114L356 68L445 68L445 108L535 108L535 85L624 85L624 69L713 69L713 122L802 122L802 78L891 78L891 89L980 89L980 105L980 0L980 0L891 0L891 0L802 0L802 0L713 0L713 0L624 0L624 0L535 0L535 0L445 0L445 0L356 0L356 0L267 0L267 0L178 0L178 0L89 0L89 0L0 0Z" fill="#71a9cd"></path><path d="M0 108L89 108L89 63L178 63L178 84L267 84L267 85L356 85L356 63L445 63L445 59L535 59L535 59L624 59L624 94L713 94L713 104L802 104L802 56L891 56L891 107L980 107L980 84L980 0L980 0L891 0L891 0L802 0L802 0L713 0L713 0L624 0L624 0L535 0L535 0L445 0L445 0L356 0L356 0L267 0L267 0L178 0L178 0L89 0L89 0L0 0Z" fill="#60a0c7"></path><path d="M0 77L89 77L89 92L178 92L178 49L267 49L267 85L356 85L356 46L445 46L445 85L535 85L535 64L624 64L624 62L713 62L713 92L802 92L802 50L891 50L891 77L980 77L980 92L980 0L980 0L891 0L891 0L802 0L802 0L713 0L713 0L624 0L624 0L535 0L535 0L445 0L445 0L356 0L356 0L267 0L267 0L178 0L178 0L89 0L89 0L0 0Z" fill="#4d97c2"></path><path d="M0 67L89 67L89 36L178 36L178 62L267 62L267 73L356 73L356 67L445 67L445 56L535 56L535 63L624 63L624 52L713 52L713 44L802 44L802 41L891 41L891 58L980 58L980 62L980 0L980 0L891 0L891 0L802 0L802 0L713 0L713 0L624 0L624 0L535 0L535 0L445 0L445 0L356 0L356 0L267 0L267 0L178 0L178 0L89 0L89 0L0 0Z" fill="#3f8cb8"></path><path d="M0 50L89 50L89 35L178 35L178 28L267 28L267 50L356 50L356 44L445 44L445 26L535 26L535 51L624 51L624 47L713 47L713 27L802 27L802 50L891 50L891 36L980 36L980 51L980 0L980 0L891 0L891 0L802 0L802 0L713 0L713 0L624 0L624 0L535 0L535 0L445 0L445 0L356 0L356 0L267 0L267 0L178 0L178 0L89 0L89 0L0 0Z" fill="#3a81a9"></path><path d="M0 26L89 26L89 45L178 45L178 24L267 24L267 37L356 37L356 22L445 22L445 29L535 29L535 27L624 27L624 27L713 27L713 38L802 38L802 16L891 16L891 34L980 34L980 23L980 0L980 0L891 0L891 0L802 0L802 0L713 0L713 0L624 0L624 0L535 0L535 0L445 0L445 0L356 0L356 0L267 0L267 0L178 0L178 0L89 0L89 0L0 0Z" fill="#34769a"></path><path d="M0 22L89 22L89 25L178 25L178 12L267 12L267 19L356 19L356 8L445 8L445 26L535 26L535 4L624 4L624 20L713 20L713 18L802 18L802 19L891 19L891 18L980 18L980 9L980 0L980 0L891 0L891 0L802 0L802 0L713 0L713 0L624 0L624 0L535 0L535 0L445 0L445 0L356 0L356 0L267 0L267 0L178 0L178 0L89 0L89 0L0 0Z" fill="#2f6b8c"></path></svg>